<?xml version="1.0" standalone="no"?>
<!DOCTYPE svg PUBLIC "-//W3C//DTD SVG 20010904//EN"
 "http://www.w3.org/TR/2001/REC-SVG-20010904/DTD/svg10.dtd">
<svg version="1.0" xmlns="http://www.w3.org/2000/svg"
 width="312.000000pt" height="240.000000pt" viewBox="0 0 312.000000 240.000000"
 preserveAspectRatio="xMidYMid meet">

<g transform="translate(0.000000,240.000000) scale(0.100000,-0.100000)"
fill="#000000" stroke="none">
<path d="M1483 1644 c-3 -8 -3 -30 0 -48 5 -31 4 -33 -39 -44 -81 -22 -106
-104 -57 -187 16 -28 37 -51 45 -53 15 -3 15 1 2 44 -8 26 -22 56 -31 66 -15
17 -15 19 3 33 17 12 21 12 32 -3 7 -9 20 -41 29 -71 13 -45 17 -51 25 -36 9
15 8 56 -4 129 -5 32 20 29 37 -4 21 -41 77 -69 101 -50 12 11 15 24 10 57 -5
39 -4 43 15 43 20 0 21 -4 14 -37 -4 -21 -9 -90 -11 -153 -2 -98 -1 -112 11
-97 14 20 26 69 45 182 15 94 17 97 64 84 29 -8 36 -14 31 -27 -9 -23 -41
-164 -54 -235 -5 -31 -22 -83 -36 -115 -25 -56 -25 -59 -10 -96 l16 -39 25 37
c33 48 61 130 69 203 12 105 49 213 74 213 5 0 20 -9 34 -20 l25 -20 -29 -58
c-16 -32 -42 -111 -58 -175 -33 -129 -47 -160 -92 -212 -24 -27 -30 -41 -25
-60 5 -21 10 -24 25 -15 28 14 96 95 115 134 9 19 28 74 42 123 14 48 39 112
55 141 28 50 30 59 27 145 l-3 91 -55 28 c-101 51 -264 76 -358 54 -29 -7 -36
-4 -68 28 -27 27 -36 32 -41 20z m81 -107 c32 -52 30 -85 -4 -67 -15 8 -50 90
-50 118 0 16 30 -13 54 -51z"/>
<path d="M1306 1334 c-10 -26 -7 -34 12 -34 10 0 27 -7 38 -15 10 -8 27 -15
38 -15 15 0 11 8 -20 40 -42 43 -58 49 -68 24z"/>
<path d="M1550 1331 c0 -7 6 -22 13 -34 8 -14 12 -64 12 -142 0 -102 3 -126
20 -158 19 -34 22 -36 40 -23 18 13 18 15 -4 90 -16 53 -21 88 -16 115 5 29 1
52 -15 90 -22 51 -50 85 -50 62z"/>
<path d="M1467 1277 c-8 -21 8 -39 29 -35 27 5 25 42 -2 46 -12 2 -24 -3 -27
-11z"/>
<path d="M1263 1238 c-29 -38 -23 -45 39 -52 33 -4 71 -12 84 -18 29 -13 110
-129 129 -184 9 -27 20 -40 35 -42 19 -3 21 0 15 20 -15 53 -74 166 -104 200
-51 58 -175 106 -198 76z"/>
<path d="M1212 1128 c-19 -19 -14 -25 26 -32 112 -20 170 -59 210 -142 13 -29
42 -48 42 -28 0 12 -62 108 -96 151 -28 33 -44 43 -84 52 -65 14 -83 14 -98
-1z"/>
<path d="M1142 995 c-18 -36 -32 -80 -32 -98 1 -49 34 -113 69 -131 39 -21
116 -20 149 0 34 20 105 111 97 123 -3 5 -30 15 -60 21 -63 13 -90 33 -140
100 -20 28 -40 50 -44 50 -4 0 -21 -29 -39 -65z m46 -67 c28 -28 3 -85 -32
-72 -16 6 -23 64 -9 77 10 11 28 8 41 -5z"/>
<path d="M1960 964 c-46 -66 -106 -114 -166 -134 -28 -10 -34 -16 -34 -41 0
-19 5 -29 14 -29 37 0 160 56 197 89 l40 36 -3 72 -3 72 -45 -65z"/>
</g>
</svg>
