<?xml version="1.0" encoding="utf-8"?>
<!-- Generator: Adobe Illustrator 27.5.0, SVG Export Plug-In . SVG Version: 6.00 Build 0)  -->
<svg version="1.1" xmlns="http://www.w3.org/2000/svg" xmlns:xlink="http://www.w3.org/1999/xlink" x="0px" y="0px"
	 viewBox="0 0 500 500" style=":0 0 500 500;" xml:space="preserve">
<g id="OBJECTS">
	<g>
		
			<linearGradient id="SVGID_1_" gradientUnits="userSpaceOnUse" x1="69.7996" y1="75.0925" x2="209.6762" y2="244.0002" gradientTransform="matrix(-1 0 0 1 493.0346 0)">
			<stop  offset="0.1224" style="stop-color:#96E2FF"/>
			<stop  offset="1" style="stop-color:#12BEFF"/>
		</linearGradient>
		<path style="fill:url(#SVGID_1_);" d="M41.658,218.309c0.308-4.708,0.937-9.323,1.887-13.801
			c11.951-56.342,52.927-60.325,88.212-63.74c31.894-3.087,62.367-28.9,84.126-50.707c21.926-21.975,47.085-37.939,79.208-39.781
			c89.35-5.122,122.928,31.301,142.846,54.634c17.898,20.966,27.874,46.471,27.796,123.514l-0.786,142.079L41.641,373.26
			L41.658,218.309z"/>
		
			<linearGradient id="SVGID_00000121269508861180258020000003496208664823766715_" gradientUnits="userSpaceOnUse" x1="2497.7925" y1="2144.5803" x2="2663.4485" y2="2259.1082" gradientTransform="matrix(-0.847 0.5316 -0.5316 -0.847 3458.5979 595.1445)">
			<stop  offset="0.1224" style="stop-color:#96E2FF"/>
			<stop  offset="1" style="stop-color:#12BEFF"/>
		</linearGradient>
		<path style="fill:url(#SVGID_00000121269508861180258020000003496208664823766715_);" d="M152.892,116.63
			c-7.308,4.162-16.194,4.192-24.543,5.404c-15.034,2.183-27.64,12.799-42.552,13.403c-12.792,0.518-24.545-10.253-26.716-22.87
			c-2.17-12.617,4.325-25.853,14.71-33.34c7.564-5.453,16.797-8.118,26.003-9.602c20.812-3.354,44.596-0.006,58.356,15.966
			c9.619,11.166,8.026,23.137-4.861,30.807C153.158,116.477,153.025,116.554,152.892,116.63z"/>
	</g>
	<path style="fill:#FFFFFF;" d="M184.871,242.044c4.573-18.667,9.45-37.973,21.389-53.034s33.052-24.664,50.83-17.363
		c9.556,3.925,16.88,12.173,21.405,21.46c4.525,9.287,6.506,19.602,7.739,29.859c2.535,21.088,2.087,42.533-1.328,63.496
		l-101.391-8.845L184.871,242.044z"/>
	<g>
		<path style="fill:#FF6258;" d="M226.502,263.266c-3.145-14.342-11.691-28.295-25.153-34.157
			c-5.246-2.284-11.044-3.281-16.007-6.127c-7.272-4.171-11.885-11.834-14.83-19.683c-2.945-7.849-4.538-16.158-7.555-23.98
			c-4.828-12.518-13.52-23.739-25.15-30.431c-5.809-3.343-12.364-5.468-19.029-6.155c3.191,54.02,9.052,152.638,12.491,206.616
			l86,35.862c0.064,0.012,0.133,0.035,0.21,0.087l-0.21-0.087c-0.905-0.165-0.482,3.346,1.699,0.504
			c2.598-26.198,5.197-52.396,7.795-78.594C228.213,292.509,229.648,277.608,226.502,263.266z"/>
		<path style="fill:#D95258;" d="M99.049,145.225c-12.253,4.743-21.635,15.423-26.671,27.559
			c-3.638,8.766-6.776,19.889-16.007,22.093c-3.51,0.838-7.184,0.079-10.791,0.177c-9.884,0.271-18.726,7.199-23.46,15.88
			s-5.928,18.864-5.848,28.752c0.236,29.238,23.245,26.755,35.516,76.52l79.483,33.143c-3.439-53.978-9.3-152.596-12.491-206.616
			C112.101,142.045,105.311,142.801,99.049,145.225z"/>
		<polygon style="fill:#FFFFFF;" points="226.726,268.853 226.835,268.269 187.362,260.868 217.889,243.204 217.592,242.689 
			156.752,277.894 179.344,219.448 178.789,219.233 155.93,278.37 128.975,293.967 124.623,227.476 163.189,179.506 
			162.726,179.133 138.731,208.978 146.714,155.095 146.127,155.008 138.09,209.252 138.467,209.307 124.565,226.598 
			119.076,142.714 118.482,142.752 122.951,211.034 94.905,189.615 94.962,189.59 81.401,157.948 80.854,158.183 94.043,188.956 
			72.558,172.548 72.197,173.02 122.634,211.541 122.956,211.119 127.499,280.537 22.284,210.685 21.955,211.181 76.332,247.281 
			19.307,255.711 19.394,256.298 77.071,247.772 127.548,281.283 128.4,294.3 128.19,294.421 128.436,294.846 131.056,334.878 
			131.649,334.84 129.018,294.629 155.889,279.08 156.241,279.216 156.41,278.779 186.573,261.324 		"/>
		
			<rect x="75.305" y="189.692" transform="matrix(0.9114 -0.4116 0.4116 0.9114 -85.4369 50.9573)" style="fill:#FFFFFF;" width="0.595" height="68.336"/>
	</g>
	<g>
		<defs>
			<path id="SVGID_00000177460841230958090320000007970170561154196912_" d="M401.24,450.189H105.765
				c-35.372,0-64.046-28.674-64.046-64.046v-78.117c0-35.372,28.674-64.046,64.046-64.046H401.24
				c35.372,0,64.046-1.006,64.046,34.366v107.797C465.285,421.514,436.611,450.189,401.24,450.189z"/>
		</defs>
		<clipPath id="SVGID_00000166674918782158798640000017059231758684002737_">
			<use xlink:href="#SVGID_00000177460841230958090320000007970170561154196912_"  style="overflow:visible;"/>
		</clipPath>
		<polygon style="clip-path:url(#SVGID_00000166674918782158798640000017059231758684002737_);fill:#515154;" points="
			501.966,279.599 487.04,455.431 134.768,453.858 127.13,342.174 		"/>
		<polygon style="clip-path:url(#SVGID_00000166674918782158798640000017059231758684002737_);fill:#5F5F60;" points="
			201.081,387.283 396.613,398.291 396.089,436.559 198.46,428.696 		"/>
		<path style="clip-path:url(#SVGID_00000166674918782158798640000017059231758684002737_);fill:#3A3B3F;" d="M398.288,275.918
			c0,0,102.451,4.294,103.678,3.681c1.033-0.516-68.013,74.142-85.883,93.127c-3.401,3.613-8.225,5.535-13.18,5.253l-292.692-16.676
			c-3.733-0.213-5.03-5.067-1.901-7.113l114.522-81.339L398.288,275.918z"/>
		<path style="clip-path:url(#SVGID_00000166674918782158798640000017059231758684002737_);fill:#FF6258;" d="M459.615,452.528
			c4.598-6.368,8.627-13.147,12.022-20.23c2.765-5.767,4.663-13.718-0.34-17.703c-5.014-3.995-13.524-0.732-18.122-5.199
			c-4.641-4.51-1.261-12.129-0.408-18.544c1.699-12.784-9.824-25.162-22.694-25.984c-12.87-0.822-25.176,8.556-29.527,20.696
			c-2.469,6.889-3.501,15.53-10.055,18.786c-4.097,2.035-8.97,1.102-13.525,1.525c-10.349,0.961-18.903,9.224-23.033,18.762
			c-4.13,9.538-4.599,20.218-4.602,30.612L459.615,452.528z"/>
		<g style="clip-path:url(#SVGID_00000166674918782158798640000017059231758684002737_);">
			<path style="fill:#FFFFFF;" d="M466.183,424.375c-7.184,1.315-14.443,2.207-21.732,2.666c-1.551,0.098-3.103,0.169-4.655,0.227
				c4.896-2.632,9.756-5.33,14.577-8.098c3.464-1.989,6.908-4.014,10.332-6.072c0.256-0.154,0.023-0.557-0.235-0.402
				c-6.079,3.655-12.223,7.202-18.429,10.638c-2.426,1.343-4.865,2.665-7.31,3.974c-0.151,0.005-0.301,0.013-0.451,0.017
				c-0.192,0.006-0.26,0.199-0.205,0.335c-3.592,1.918-7.201,3.803-10.832,5.647c-3.033,1.54-6.082,3.048-9.14,4.536
				c1.703-6.37,3.365-12.751,4.976-19.144c1.768-7.017,3.473-14.05,5.13-21.094c3.02-1.702,6.006-3.466,8.949-5.298
				c0.04-0.025,0.08-0.051,0.12-0.076c0.078,0.149,0.361,0.173,0.443-0.04c0.04-0.105,0.081-0.211,0.121-0.316
				c3.01-1.888,5.979-3.841,8.901-5.862c1.768-1.223,3.52-2.471,5.255-3.741c0.239-0.175,0.007-0.579-0.235-0.402
				c-3.069,2.248-6.192,4.423-9.365,6.521c-1.416,0.936-2.843,1.854-4.278,2.76c1.873-4.878,3.746-9.756,5.619-14.634
				c0.567-1.477,1.134-2.955,1.702-4.432c0.107-0.28-0.342-0.401-0.449-0.124c-2.006,5.225-4.012,10.45-6.018,15.674
				c-0.503,1.31-1.006,2.62-1.509,3.931c-1.582,0.991-3.176,1.964-4.781,2.917c-1.433,0.851-2.878,1.682-4.329,2.503
				c0.949-4.044,1.886-8.091,2.799-12.144c1.436-6.38,2.826-12.77,4.172-19.17c0.073-0.346-0.339-0.518-0.612-0.483
				c-0.369,0.047-0.623,0.338-0.696,0.683c-2.385,11.341-4.915,22.651-7.587,33.927c-0.597,2.52-1.204,5.038-1.816,7.555
				c-1.922-4.233-3.786-8.492-5.583-12.779c-1.994-4.756-3.91-9.545-5.749-14.363c-1.04-2.726-2.055-5.461-3.045-8.205
				c-0.101-0.28-0.551-0.159-0.449,0.124c1.763,4.887,3.605,9.745,5.526,14.571c0.437,1.097,0.879,2.193,1.324,3.287
				c-4.139-0.89-8.278-1.78-12.417-2.669c-1.187-0.255-2.374-0.51-3.561-0.766c-0.292-0.063-0.417,0.386-0.124,0.449
				c4.164,0.895,8.328,1.791,12.493,2.686l3.561,0.766c0.089,0.019,0.16-0.012,0.211-0.063c1.454,3.566,2.951,7.116,4.49,10.646
				c1.029,2.359,2.08,4.708,3.147,7.05c-2.064,8.475-4.209,16.93-6.434,25.364c-0.45,1.704-0.911,3.405-1.367,5.107
				c-0.044,0.021-0.089,0.044-0.133,0.065c-0.186,0.09-0.129,0.306,0.011,0.39c-1.184,4.412-2.382,8.821-3.61,13.221
				c-0.235,0.843,1.056,0.777,1.244,0.102c1.291-4.626,2.551-9.26,3.794-13.9c5.979-2.904,11.912-5.902,17.791-9.004
				c1.043-0.551,2.083-1.109,3.123-1.665c7.149-0.235,14.282-0.878,21.356-1.933c2.037-0.304,4.069-0.642,6.095-1.013
				C466.601,424.77,466.476,424.321,466.183,424.375z"/>
			<path style="fill:#FFFFFF;" d="M383.228,437.856c-0.904-1.548-1.795-3.103-2.692-4.655c0.044-0.037,0.072-0.094,0.067-0.172
				c-0.5-7.033-0.842-14.078-1.025-21.126c-0.052-2.003-0.091-4.006-0.117-6.01c-0.004-0.299-0.469-0.3-0.466,0
				c0.093,7.051,0.344,14.099,0.754,21.138c0.105,1.806,0.224,3.611,0.35,5.416c-2.419-4.192-4.824-8.392-7.194-12.611
				c-1.919-3.415-3.822-6.84-5.71-10.273c-0.144-0.263-0.546-0.028-0.402,0.235c3.353,6.1,6.756,12.172,10.21,18.215
				c3.435,6.01,6.919,11.992,10.453,17.945c2,3.369,4.016,6.728,6.047,10.078c0.155,0.256,0.558,0.022,0.402-0.235
				C390.297,449.849,386.738,443.867,383.228,437.856z"/>
			<path style="fill:#FFFFFF;" d="M388.369,448.002c-4.978-0.937-9.932-2.003-14.853-3.201c-4.922-1.198-9.812-2.525-14.664-3.98
				c-2.732-0.819-5.451-1.68-8.157-2.579c-0.285-0.095-0.407,0.355-0.124,0.449c4.807,1.598,9.655,3.071,14.539,4.414
				s9.804,2.557,14.752,3.641c2.786,0.61,5.58,1.178,8.383,1.706C388.538,448.506,388.663,448.057,388.369,448.002z"/>
		</g>
	</g>
	<g>
		<path style="fill:#0073EE;" d="M171.454,321.162l-0.089,2.224c-0.206,5.139,3.767,9.484,8.904,9.738l235.01,11.621
			c4.2,0.208,8.114-2.128,9.924-5.924l18.635-39.744l-0.46-9.662L171.454,321.162z"/>
		<path style="fill:#BABABA;" d="M225.9,283.28l-54.446,37.882l243.211,10.77c3.766,0.167,7.29-1.855,9.047-5.19l19.667-37.327
			L225.9,283.28z"/>
		<polygon style="fill:#FFFFFF;" points="227.281,291.408 425.435,297.543 411.938,318.401 205.195,309.199 		"/>
		<g>
			<path style="fill:#D3D3D3;" d="M254.66,148.557l202.29,4.255c4.59,0.097,8.038,4.223,7.31,8.757
				c-4.792,29.857-20.483,127.523-20.89,128.687c-0.48,1.373-218.014-6.887-218.014-6.887l21.081-127.98
				C247.098,151.383,250.602,148.471,254.66,148.557z"/>
			<path style="fill:#FFFFFF;" d="M438.779,287.198c-0.029,0-0.059-0.002-0.089-0.007c-0.297-0.049-0.498-0.329-0.45-0.626
				l21.625-132.052c0.049-0.298,0.323-0.501,0.626-0.45c0.297,0.049,0.498,0.329,0.449,0.626l-21.625,132.052
				C439.272,287.009,439.041,287.198,438.779,287.198z"/>
			<polygon style="fill:#3A3B3F;" points="261.132,166.093 443.783,168.318 425.077,282.623 243.4,276.731 			"/>
			<g>
				<defs>
					<path id="SVGID_00000004510667507729030860000000284157465278354106_" d="M261.132,166.093
						c0.086-0.539,22.58,0.275,23.909,0.291c15.127,0.184,27.772,2.355,34.678-13.896c3.04-7.155,4.707-15.189,9.949-20.93
						c2.487-2.724,5.657-4.761,9.022-6.271c10.825-4.858,23.98-4.143,34.215,1.86c10.235,6.002,17.28,17.135,18.324,28.954
						c0.735,8.317,0.015,11.633,8.881,11.686c7.602,0.045,15.204,0.185,22.806,0.278c1.153,0.014,20.788,0.735,20.867,0.254
						c0,0.003-18.706,114.305-18.706,114.305L243.4,276.731c1.545-9.641,3.09-19.282,4.636-28.923
						c1.431-8.928,2.862-17.855,4.292-26.783c0.799-4.397,3.217-14.565,0.669-18.247c-1.48-2.139-2.961-4.279-4.441-6.418
						c-0.964-1.393-1.972-2.944-1.812-4.63c0.16-1.686,2.194-3.19,3.57-2.201c-0.827-3.148-0.82-6.512,0.02-9.657
						c2.278-0.432,4.677-0.203,6.832,0.651C262.045,178.232,260.459,170.301,261.132,166.093z"/>
				</defs>
				<clipPath id="SVGID_00000173844740227882819210000018268202303800970660_">
					<use xlink:href="#SVGID_00000004510667507729030860000000284157465278354106_"  style="overflow:visible;"/>
				</clipPath>
				<g style="clip-path:url(#SVGID_00000173844740227882819210000018268202303800970660_);">
					<path style="fill:#0073EE;" d="M370.701,131.351c0,0-15.48-11.271-36.859,3.139c-21.379,14.411-20.824,101.849-20.824,101.849
						l72.568,9.35c0,0,3.044-50.573,3.477-80.017S372.095,130.452,370.701,131.351z"/>
					<path style="fill:#0063EE;" d="M342.806,203.77c-9.978,0.125-20.932-1.846-27.817-8.757
						c-2.094,21.987-1.971,41.327-1.971,41.327l72.568,9.35c0,0,1.658-27.552,2.701-53.823
						C374.383,199.422,358.632,203.573,342.806,203.77z"/>
					
						<linearGradient id="SVGID_00000057852191406556016050000005832299268717552558_" gradientUnits="userSpaceOnUse" x1="303.4375" y1="235.5225" x2="380.7354" y2="206.0756" gradientTransform="matrix(0.9999 0.0147 -0.0147 0.9999 22.0323 -11.2673)">
						<stop  offset="0" style="stop-color:#F6C5CF"/>
						<stop  offset="0.999" style="stop-color:#FF7F58"/>
					</linearGradient>
					<path style="fill:url(#SVGID_00000057852191406556016050000005832299268717552558_);" d="M350.54,188.115l-15.459,49.93
						c0,0,24.228,10.94,35.858,2.368l-3.295-57.568L350.54,188.115z"/>
					
						<linearGradient id="SVGID_00000080921137832134286550000014762350041979609780_" gradientUnits="userSpaceOnUse" x1="340.5243" y1="195.1021" x2="374.056" y2="195.1021">
						<stop  offset="0.0021" style="stop-color:#D68382"/>
						<stop  offset="0.9964" style="stop-color:#B44645"/>
					</linearGradient>
					<path style="fill:url(#SVGID_00000080921137832134286550000014762350041979609780_);" d="M368.509,197.97l-0.866-15.126
						l-17.103,5.271l-5.747,18.563c0.314,0.13,0.635,0.24,0.959,0.327c2.558,0.691,5.283,0.269,7.85-0.388
						C359.235,205.175,364.818,202.326,368.509,197.97z"/>
					<path style="fill:#FF6258;" d="M435.577,257.009c-16.127-17.301-36.184-25.543-57.286-29.386
						c-5.874,4.155-14.152,5.788-14.152,5.788s-16.156,3.444-25.73-2.679c-2.621-1.676-4.408-3.478-5.628-5.211
						c-19.133,2.142-36.598,8.579-55.31,18.581c-25.973,13.883-34.071,32.63-34.071,32.63l203.279,7.59
						C446.679,284.321,446.902,269.139,435.577,257.009z"/>
					<g style="opacity:0.7;">
						<path style="fill:#D95258;" d="M270.23,277.733l25.85,0.965c3.514-9.138,7.316-18.165,11.409-27.058
							c-11.432,5.782-22.925,11.443-34.478,16.98L270.23,277.733z"/>
						<path style="fill:#D95258;" d="M426.921,285.733c0.234-1.193,0.468-2.385,0.702-3.577c0.105-0.533,0.206-1.096-0.039-1.597
							c-0.289-0.592-0.994-0.968-1.659-1.304c-9.042-4.576-18.177-9.029-27.402-13.356c-1.459,6.279-2.917,12.559-4.376,18.838
							L426.921,285.733z"/>
					</g>
					<g>
						
							<linearGradient id="SVGID_00000145026032421671359830000002886428875691839657_" gradientUnits="userSpaceOnUse" x1="313.2638" y1="172.1269" x2="394.2433" y2="164.1516">
							<stop  offset="0" style="stop-color:#F6C5CF"/>
							<stop  offset="0.999" style="stop-color:#FF7F58"/>
						</linearGradient>
						<path style="fill:url(#SVGID_00000145026032421671359830000002886428875691839657_);" d="M337.888,140.992
							c0,0-11.582,36.643-4.857,48.706s31.149,9.661,37.833-6.806l6.265-19.235l2.03-12.855L337.888,140.992z"/>
						
							<linearGradient id="SVGID_00000183234795347397612720000001794152317028765622_" gradientUnits="userSpaceOnUse" x1="329.196" y1="183.0028" x2="382.5684" y2="185.7634" gradientTransform="matrix(0.9999 0.0147 -0.0147 0.9999 22.0323 -11.2673)">
							<stop  offset="0" style="stop-color:#F6C5CF"/>
							<stop  offset="0.999" style="stop-color:#FF7F58"/>
						</linearGradient>
						<path style="fill:url(#SVGID_00000183234795347397612720000001794152317028765622_);" d="M374.727,170.524l-5.291,15.568
							c0,0,4.134,0.521,9.262-4.005S383.035,168.806,374.727,170.524z"/>
						<path style="fill:#0073EE;" d="M336.498,138.347c0,0,12.802,27.069,37.05,36.629l8.78-23.991L336.498,138.347z"/>
					</g>
					<g>
						<path style="fill:#FFFFFF;" d="M340.412,219.717c0,0-2.03,12.855,8.078,13.924l-14.6,22.793
							C333.89,256.434,312.267,224.825,340.412,219.717z"/>
						<path style="fill:#FFFFFF;" d="M348.49,233.641c0,0,9.492,11.644,12.097,22.266c22.685-9.33,30.655-19.336,9.262-35.296
							C369.849,220.61,368.726,234.398,348.49,233.641z"/>
					</g>
					
						<linearGradient id="SVGID_00000123423458146416790320000004235879074380341653_" gradientUnits="userSpaceOnUse" x1="219.1341" y1="235.4794" x2="273.8988" y2="235.4794" gradientTransform="matrix(0.9999 0.0147 -0.0147 0.9999 22.0323 -11.2673)">
						<stop  offset="0" style="stop-color:#F6C5CF"/>
						<stop  offset="0.999" style="stop-color:#FF7F58"/>
					</linearGradient>
					<path style="fill:url(#SVGID_00000123423458146416790320000004235879074380341653_);" d="M274.197,279.024
						c0.02-1.38,7.909-68.448,7.909-68.448s10.324-13.653,10.825-16.407c0.501-2.754-12.483,3.958-12.483,3.958l-8.43-21.291
						l-0.196,13.342c0,0-7.165-13.45-9.465-13.484c-2.3-0.034,3.91,15.703,3.91,15.703s-8.619-8.41-11.833-8.917
						c-3.214-0.507,6.718,12.523,6.718,12.523s-9.134-4.736-10.987-3.843c-1.854,0.893,9.932,13.031,9.932,13.031
						s1.732,7.388,5.385,9.282c-21.914,50.755-28.53,62.622-28.53,62.622L274.197,279.024z"/>
					<g>
						<g>
							
								<linearGradient id="SVGID_00000066512654676976516080000007612649896188653472_" gradientUnits="userSpaceOnUse" x1="390.1824" y1="85.6513" x2="391.6709" y2="88.2803">
								<stop  offset="0" style="stop-color:#FFFFFF"/>
								<stop  offset="1" style="stop-color:#4F4D93"/>
							</linearGradient>
							<path style="fill:url(#SVGID_00000066512654676976516080000007612649896188653472_);" d="M390.927,88.466c1.93,0,1.934-3,0-3
								C388.996,85.466,388.993,88.466,390.927,88.466L390.927,88.466z"/>
						</g>
					</g>
					<g>
						<g>
							
								<linearGradient id="SVGID_00000080197374547300994880000008581903969375255484_" gradientUnits="userSpaceOnUse" x1="390.1676" y1="88.0827" x2="390.953" y2="89.47">
								<stop  offset="0" style="stop-color:#FFFFFF"/>
								<stop  offset="1" style="stop-color:#4F4D93"/>
							</linearGradient>
							<path style="fill:url(#SVGID_00000080197374547300994880000008581903969375255484_);" d="M389.573,87.406
								c-0.205,0.409-0.411,0.817-0.616,1.226c-0.11,0.172-0.169,0.358-0.178,0.558c-0.045,0.199-0.036,0.399,0.027,0.598
								c0.046,0.195,0.136,0.365,0.268,0.51c0.106,0.163,0.246,0.292,0.421,0.386c0.119,0.05,0.239,0.101,0.358,0.151
								c0.266,0.071,0.532,0.071,0.797,0c0.119-0.05,0.239-0.101,0.358-0.151c0.225-0.133,0.405-0.313,0.538-0.538
								c0.205-0.409,0.411-0.817,0.616-1.226c0.11-0.172,0.169-0.358,0.178-0.558c0.045-0.199,0.036-0.399-0.027-0.598
								c-0.046-0.195-0.136-0.365-0.268-0.51c-0.106-0.163-0.246-0.292-0.421-0.386c-0.119-0.05-0.239-0.101-0.358-0.151
								c-0.266-0.071-0.532-0.071-0.798,0c-0.119,0.05-0.239,0.101-0.358,0.151C389.886,87.002,389.706,87.181,389.573,87.406
								L389.573,87.406z"/>
						</g>
					</g>
					<path style="fill:#3A3B3F;" d="M281.1,197.399c-0.181-0.279-0.471-0.345-0.764-0.311c-0.067-0.05-0.143-0.096-0.243-0.13
						c-5.689-1.972-12.297-0.361-16.506,3.927c-0.338,0.345-0.497,0.937-0.074,1.283c0.42,0.344,1.108,0.106,1.444-0.237
						c3.327-3.389,8.385-4.709,12.952-3.551c-3.625,2.364-6.676,5.609-8.784,9.389c-0.236,0.423-0.221,0.986,0.3,1.179
						c0.489,0.181,1.164-0.11,1.415-0.559c2.288-4.101,5.679-7.45,9.807-9.69C281.063,198.471,281.383,197.835,281.1,197.399z"/>
					
						<rect x="317.227" y="259.602" transform="matrix(0.1631 -0.9866 0.9866 0.1631 31.3181 557.2133)" style="fill:#FFFFFF;" width="53.737" height="1.089"/>
				</g>
				<g style="clip-path:url(#SVGID_00000173844740227882819210000018268202303800970660_);">
					<path style="fill:#FFFFFF;" d="M370.927,282.09l-64.129-1.922l2.601-13.332c0.313-1.603,1.75-2.738,3.382-2.67l57.997,2.417
						c1.642,0.068,2.839,1.581,2.527,3.195L370.927,282.09z"/>
					<g>
						<path style="fill:#D3D3D3;" d="M325.983,271.901c-0.092,2.713-2.366,4.837-5.078,4.745c-2.713-0.092-4.837-2.366-4.745-5.078
							c0.092-2.713,2.366-4.837,5.078-4.745C323.951,266.915,326.075,269.188,325.983,271.901z"/>
						<path style="fill:#72994B;" d="M318.505,269.596c0,0-0.874,1.922,0.699,3.582c1.573,1.66,4.805,0.612,4.98-0.349l-1.311-1.048
							c0,0-0.874,1.136-1.922,1.048c-1.048-0.087-1.485-1.398-1.136-2.184L318.505,269.596z"/>
					</g>
					<g>
						<path style="fill:#D3D3D3;" d="M363.459,273.173c-0.092,2.713-2.366,4.837-5.078,4.745c-2.713-0.092-4.837-2.366-4.745-5.078
							c0.092-2.713,2.366-4.837,5.078-4.745C361.427,268.187,363.551,270.461,363.459,273.173z"/>
						<path style="fill:#FF6258;" d="M361.84,274.227c0,0-0.073-2.226-2.236-2.967c-2.163-0.741-4.541,1.687-4.25,2.619l1.647,0.321
							c0,0,0.247-1.411,1.217-1.82c0.969-0.409,1.995,1.163,2.05,2.022L361.84,274.227z"/>
					</g>
					<g>
						<path style="fill:#D3D3D3;" d="M345.041,272.548c-0.092,2.713-2.366,4.837-5.078,4.745c-2.713-0.092-4.837-2.366-4.745-5.078
							c0.092-2.713,2.366-4.837,5.078-4.745C343.008,267.562,345.133,269.835,345.041,272.548z"/>
						<polygon style="fill:#FFFFFF;" points="343.231,270.776 341.527,271.979 341.527,270.514 337.333,270.514 337.333,274.314 
							341.527,274.314 341.527,272.595 343.231,273.397 						"/>
					</g>
				</g>
			</g>
		</g>
	</g>
	<g>
		<defs>
			<path id="SVGID_00000158720879889536278420000000161243286907929239_" d="M305.124,432.628c-0.169,1.171-0.391,2.333-0.674,3.483
				c-3.736,15.187-11.038,14.078-24.832,14.078c-14.211,0-28.423,0-42.634,0c-26.914,0-53.827,0-80.741,0
				c-28.238,0-56.476,0-84.714,0c-16.464,0-29.811-13.347-29.811-29.811v-263.75c0-16.464,13.347-29.811,29.811-29.811
				c18.781,0,37.561,0,56.341,0c19.275,0,38.549,0,57.824,0c17.042,0,37.239-5.303,42.486,15.714
				c1.648,6.604,1.305,13.52,0.951,20.318c-0.901,17.29-1.802,34.581-2.703,51.871c-0.232,4.441-0.387,9.197,1.952,12.979
				c2.947,4.765,9.076,6.706,12.344,11.256c6.761,9.411-1.128,25.761,8.191,32.648c2.637,1.949,6.06,2.476,9.338,2.552
				c9.728,0.225,19.24-2.967,28.964-3.334c7.246-0.273,14.548,1.052,21.236,3.854c2.231,0.935,4.47,2.092,5.953,4.003
				c3.351,4.318,1.687,10.51,0.034,15.72c-11.556,36.428-15.165,75.354-10.502,113.285
				C304.932,415.763,306.31,424.428,305.124,432.628z"/>
		</defs>
		<clipPath id="SVGID_00000026857141362204723640000016489050390228726443_">
			<use xlink:href="#SVGID_00000158720879889536278420000000161243286907929239_"  style="overflow:visible;"/>
		</clipPath>
		<g style="clip-path:url(#SVGID_00000026857141362204723640000016489050390228726443_);">
			
				<linearGradient id="SVGID_00000044883097101643266790000016977440172871935107_" gradientUnits="userSpaceOnUse" x1="200.1195" y1="239.3445" x2="104.9016" y2="311.7499">
				<stop  offset="0" style="stop-color:#F6C5CF"/>
				<stop  offset="0.999" style="stop-color:#FF7F58"/>
			</linearGradient>
			<polygon style="fill:url(#SVGID_00000044883097101643266790000016977440172871935107_);" points="171.164,213.785 
				170.503,334.791 91.155,286.521 150.005,204.527 			"/>
			<path style="opacity:0.8;fill:#D95258;" d="M170.953,252.458l0.207-37.883l-22.036-8.82l-11.49,16.008
				c3.45,6.21,7.559,12.027,12.532,17.086C156.015,244.798,163.138,249.641,170.953,252.458z"/>
			
				<linearGradient id="SVGID_00000040570093586773419370000013309642896404747411_" gradientUnits="userSpaceOnUse" x1="228.41" y1="154.1306" x2="107.4039" y2="227.5278">
				<stop  offset="0" style="stop-color:#F6C5CF"/>
				<stop  offset="0.999" style="stop-color:#FF7F58"/>
			</linearGradient>
			<path style="fill:url(#SVGID_00000040570093586773419370000013309642896404747411_);" d="M203.72,156.021
				c0,0,6.145,21.507,4.916,38.712c-1.229,17.205-4.916,35.025-9.832,38.098s-41.17-2.458-54.074-22.736l6.759-70.051
				L203.72,156.021z"/>
			<path style="fill:#3A3B3F;" d="M211.094,157.25c0,0-9.217,22.121-27.652,26.423c1.229,18.434-4.916,28.881-4.916,28.881
				c-4.916-19.663-15.976-21.507-19.663-15.362c-3.687,6.145,1.229,20.892,10.446,22.736v7.988c0,0-20.892-3.072-28.266-7.988
				c-7.374-4.916-37.483-36.869-9.217-61.448c0,0,0.615-25.808,23.35-26.423S197.576,132.056,211.094,157.25z"/>
			
				<linearGradient id="SVGID_00000005232534160038156140000010081394923764077742_" gradientUnits="userSpaceOnUse" x1="231.2252" y1="257.7865" x2="169.7302" y2="340.1104">
				<stop  offset="0" style="stop-color:#F6C5CF"/>
				<stop  offset="0.999" style="stop-color:#FF7F58"/>
			</linearGradient>
			<path style="fill:url(#SVGID_00000005232534160038156140000010081394923764077742_);" d="M127.192,338.924l65.462-64.967
				c0,0-3.471-17.357-3.471-20.333c0-2.976,9.919,8.927,9.919,8.927s5.455-21.325,6.943-23.309
				c1.488-1.984,1.488,21.821,1.488,21.821s5.455-17.357,6.447-18.845c0.992-1.488,0,17.853-0.992,21.821
				c4.463-8.431,5.951-14.878,5.951-14.878s1.984,5.951-2.48,18.349c4.463-3.471,6.447-7.935,6.447-7.935
				c0,7.439-5.951,13.39-5.951,13.39c-0.496,8.431-6.943,11.406-10.414,12.398c-11.406,43.642-24.3,98.689-24.3,98.689
				L127.192,338.924z"/>
			<path style="opacity:0.8;fill:#D95258;" d="M180.634,285.886l-53.442,53.037l55.048,45.129c0,0,5.888-25.138,13.226-54.906
				C185.351,317.277,179.892,301.469,180.634,285.886z"/>
			<path style="fill:#3A3B3F;" d="M215.896,268.831c-3.501-4.268-8.854-6.815-14.384-6.764c-0.206,0.002-0.415,0.059-0.595,0.16
				c-0.028-0.039-0.054-0.079-0.083-0.118c-0.543-0.725-2.015,0.24-1.477,0.959c3.424,4.574,4.535,10.669,2.846,16.14
				c-0.325,1.054,1.309,0.971,1.569,0.129c1.624-5.26,0.894-11.088-1.96-15.769c4.849,0.191,9.516,2.452,12.608,6.222
				C214.993,270.491,216.462,269.521,215.896,268.831z"/>
			
				<linearGradient id="SVGID_00000114059014113066542600000010886622848790406531_" gradientUnits="userSpaceOnUse" x1="249.7843" y1="244.6626" x2="266.3154" y2="429.1478">
				<stop  offset="0" style="stop-color:#F6C5CF"/>
				<stop  offset="0.999" style="stop-color:#FF7F58"/>
			</linearGradient>
			<path style="fill:url(#SVGID_00000114059014113066542600000010886622848790406531_);" d="M226.377,440.589l37.195-116.047
				c-6.447-10.91-13.886-20.333-13.886-20.333l13.39,1.984c4.959-12.894,14.878-28.268,16.862-27.772
				c1.984,0.496-3.967,17.853-3.967,17.853s11.902-17.357,13.39-17.357s-4.959,21.325-4.959,21.325s10.415-19.341,11.902-19.341
				s-5.951,21.325-5.951,21.325s8.927-14.878,11.406-13.886c2.48,0.992-16.862,33.227-16.862,33.227l2.48,138.86l-66.454,0.496
				L226.377,440.589z"/>
			<g>
				<polygon style="fill:#515154;" points="259.793,330.405 285.742,332.764 286.135,344.166 257.827,341.807 				"/>
				
					<ellipse transform="matrix(0.2307 -0.973 0.973 0.2307 -113.8905 529.7279)" style="fill:#BABABA;" cx="278.075" cy="336.893" rx="10.026" ry="10.026"/>
				
					<ellipse transform="matrix(0.788 -0.6157 0.6157 0.788 -148.3714 242.937)" style="fill:#FFFFFF;" cx="278.541" cy="336.893" rx="7.77" ry="7.77"/>
			</g>
			<path style="opacity:0.8;fill:#D95258;" d="M286.644,419.421c-9.675,1.099-19.732-2.146-28.705-6.349
				c-5.124-2.4-10.157-5.155-14.323-8.983c-1.499-1.378-2.879-2.91-4.077-4.566l-13.162,41.065l-5.455,20.333l66.454-0.496
				L286.644,419.421z"/>
			
				<linearGradient id="SVGID_00000086687672773384243590000003942994165479194025_" gradientUnits="userSpaceOnUse" x1="278.7259" y1="394.5048" x2="222.1106" y2="444.0431">
				<stop  offset="0" style="stop-color:#F6C5CF"/>
				<stop  offset="0.999" style="stop-color:#FF7F58"/>
			</linearGradient>
			<polygon style="fill:url(#SVGID_00000086687672773384243590000003942994165479194025_);" points="220.922,390.004 
				268.035,458.938 201.085,462.409 197.118,446.044 			"/>
			<path style="opacity:0.8;fill:#D95258;" d="M227.074,399.005l-27.454,57.36l1.465,6.045l25.358-1.315
				c-0.445-18.126,1.668-36.313,6.26-53.853L227.074,399.005z"/>
			
				<linearGradient id="SVGID_00000100344493706805217000000006871547935778082449_" gradientUnits="userSpaceOnUse" x1="109.1244" y1="229.9967" x2="149.7903" y2="329.1821">
				<stop  offset="0.0038" style="stop-color:#FFE911"/>
				<stop  offset="1" style="stop-color:#F1872A"/>
			</linearGradient>
			<path style="fill:url(#SVGID_00000100344493706805217000000006871547935778082449_);" d="M91.155,256.765l15.209-17.192
				c0,0,23.805-9.257,72.736,64.801l-6.612,15.87l-1.984,14.547c0,0-86.622-68.107-86.622-70.091S91.155,256.765,91.155,256.765z"/>
			
				<linearGradient id="SVGID_00000178915152522768920740000000680532991961614753_" gradientUnits="userSpaceOnUse" x1="58.3617" y1="243.4603" x2="118.0523" y2="455.1931">
				<stop  offset="0.0038" style="stop-color:#FFE911"/>
				<stop  offset="1" style="stop-color:#F1872A"/>
			</linearGradient>
			<path style="fill:url(#SVGID_00000178915152522768920740000000680532991961614753_);" d="M65.802,264.35
				c0,0,14.424-13.359,34.389,0.342c19.965,13.701,73.891,52.876,82.585,63.376l1.228,132.241l-164.641,1.529
				c0,0-9.217-113.235,7.839-152.825C39.501,280.465,65.802,264.35,65.802,264.35z"/>
			
				<linearGradient id="SVGID_00000037666284086652149180000009052246683419408263_" gradientUnits="userSpaceOnUse" x1="157.8985" y1="310.4381" x2="199.5694" y2="472.6168">
				<stop  offset="0.0038" style="stop-color:#FFE911"/>
				<stop  offset="1" style="stop-color:#F1872A"/>
			</linearGradient>
			<path style="fill:url(#SVGID_00000037666284086652149180000009052246683419408263_);" d="M132.647,342.891
				c0,0,22.813-36.203,45.625-17.853c22.813,18.349,55.544,71.909,55.544,71.909l-32.731,65.462c0,0-24.3-10.91-52.072-34.715
				C121.241,403.89,114.794,368.183,132.647,342.891z"/>
		</g>
	</g>
	<g>
		<path style="fill:#0073EE;" d="M425.187,74.851H271.322c-5.499,0-9.957,4.458-9.957,9.956v20.189c0,5.499,4.458,9.957,9.957,9.957
			h24.713l16.441,23.59l-5.551-23.59h118.26c5.499,0,9.957-4.458,9.957-9.957V84.807C435.143,79.308,430.685,74.851,425.187,74.851z
			"/>
		<g>
			<path style="fill:#FFFFFF;" d="M299.109,95.295c0,2.606-2.112,4.718-4.718,4.718c-2.606,0-4.718-2.112-4.718-4.718
				c0-2.606,2.112-4.718,4.718-4.718C296.997,90.577,299.109,92.689,299.109,95.295z"/>
			<path style="fill:#FFFFFF;" d="M320.34,95.295c0,2.606-2.112,4.718-4.718,4.718c-2.606,0-4.718-2.112-4.718-4.718
				c0-2.606,2.112-4.718,4.718-4.718C318.228,90.577,320.34,92.689,320.34,95.295z"/>
			<path style="fill:#FFFFFF;" d="M341.571,95.295c0,2.606-2.112,4.718-4.718,4.718c-2.606,0-4.718-2.112-4.718-4.718
				c0-2.606,2.112-4.718,4.718-4.718C339.458,90.577,341.571,92.689,341.571,95.295z"/>
			<path style="fill:#FFFFFF;" d="M362.801,95.295c0,2.606-2.112,4.718-4.718,4.718c-2.606,0-4.718-2.112-4.718-4.718
				c0-2.606,2.112-4.718,4.718-4.718C360.689,90.577,362.801,92.689,362.801,95.295z"/>
			<path style="fill:#FFFFFF;" d="M384.032,95.295c0,2.606-2.112,4.718-4.718,4.718c-2.606,0-4.718-2.112-4.718-4.718
				c0-2.606,2.112-4.718,4.718-4.718C381.92,90.577,384.032,92.689,384.032,95.295z"/>
			<path style="fill:#FFFFFF;" d="M405.263,95.295c0,2.606-2.112,4.718-4.718,4.718c-2.606,0-4.718-2.112-4.718-4.718
				c0-2.606,2.112-4.718,4.718-4.718C403.15,90.577,405.263,92.689,405.263,95.295z"/>
		</g>
	</g>
</g>
</svg>
