<?xml version="1.0" standalone="no"?>
<!DOCTYPE svg PUBLIC "-//W3C//DTD SVG 20010904//EN"
 "http://www.w3.org/TR/2001/REC-SVG-20010904/DTD/svg10.dtd">
<svg version="1.0" xmlns="http://www.w3.org/2000/svg"
 width="500.000000pt" height="500.000000pt" viewBox="0 0 500.000000 500.000000"
 preserveAspectRatio="xMidYMid meet">

<g transform="translate(0.000000,500.000000) scale(0.100000,-0.100000)"
fill="#000000" stroke="none">
<path d="M2668 4235 c-15 -9 -32 -24 -38 -35 -5 -10 -10 -80 -10 -155 l0 -137
29 -29 29 -29 144 0 143 -1 74 -109 c41 -60 76 -108 78 -107 1 2 -9 49 -22
106 -14 56 -25 104 -25 107 0 2 270 4 600 4 643 0 643 0 670 49 5 11 10 78 10
150 0 130 0 131 -29 163 l-29 33 -799 2 c-691 2 -802 0 -825 -12z m321 -169
c16 -43 -16 -80 -60 -69 -22 6 -38 43 -29 67 13 39 75 40 89 2z m201 14 c11
-11 20 -27 20 -35 0 -16 -34 -55 -48 -55 -20 0 -52 34 -52 55 0 21 32 55 52
55 5 0 17 -9 28 -20z m208 4 c30 -21 29 -59 -3 -80 -23 -15 -27 -15 -50 0 -32
21 -33 59 -3 80 12 9 25 16 28 16 3 0 16 -7 28 -16z m210 0 c28 -19 28 -58 1
-78 -23 -16 -47 -12 -66 12 -18 22 -16 39 7 62 24 24 29 24 58 4z m231 -20 c9
-21 8 -28 -13 -49 -16 -16 -31 -22 -46 -18 -41 11 -46 78 -6 92 30 11 52 3 65
-25z m212 3 c14 -25 -2 -62 -30 -70 -27 -7 -61 19 -61 48 0 49 68 66 91 22z"/>
<path d="M3455 3709 c-59 -18 -130 -65 -162 -107 -29 -38 -44 -77 -99 -261 -4
-12 -50 -13 -293 -8 l-289 6 -15 -97 -15 -97 37 -31 c20 -18 37 -31 39 -30 1
2 -7 29 -18 61 -36 105 -20 116 37 23 l38 -62 3 60 4 59 18 -45 c10 -25 28
-69 39 -98 l21 -53 -21 6 c-42 14 -159 -31 -144 -55 4 -6 17 -2 33 10 15 10
45 22 67 26 l39 7 -42 -48 c-37 -42 -50 -65 -38 -65 2 0 30 26 63 58 40 39 75
63 111 76 29 10 55 16 58 13 3 -2 -20 -41 -50 -87 l-55 -82 -19 -161 c-11 -89
-18 -163 -17 -165 2 -2 34 12 71 31 97 48 245 102 339 122 57 13 89 26 112 46
18 15 48 31 66 34 32 6 34 10 69 113 l35 107 -49 16 c-90 30 -118 75 -118 191
0 40 12 127 26 193 34 160 35 165 43 165 3 0 24 -28 46 -61 22 -33 76 -95 120
-137 79 -76 186 -145 192 -125 2 6 10 18 17 29 13 17 15 17 40 1 53 -35 15
-125 -60 -143 -16 -3 -47 -24 -69 -45 -22 -21 -61 -47 -87 -59 -46 -20 -48
-23 -48 -60 0 -29 4 -40 15 -40 21 0 102 39 116 56 6 8 15 14 19 14 4 0 10
-48 14 -107 l7 -106 42 -38 c23 -21 53 -41 67 -44 80 -19 234 -72 291 -101 37
-18 97 -56 133 -83 62 -47 66 -49 71 -28 15 62 132 803 128 810 -2 4 -125 7
-272 7 l-268 0 -6 78 c-8 101 -39 184 -86 231 -72 72 -243 112 -346 80z"/>
<path d="M1539 3670 c-118 -12 -200 -90 -216 -206 -4 -33 -14 -51 -35 -69 -16
-14 -26 -25 -22 -25 4 0 -1 -9 -10 -19 -9 -10 -25 -40 -35 -66 l-18 -48 -7
124 c-4 68 -9 143 -13 167 -5 42 -5 42 -47 42 -93 -1 -204 -44 -276 -108 l-43
-38 68 -156 67 -157 86 -68 c102 -81 163 -127 177 -135 6 -4 9 22 7 70 -2 74
-1 75 11 42 7 -20 28 -58 47 -85 38 -56 154 -177 162 -169 3 2 3 -7 0 -21 -4
-24 -5 -24 -18 -8 -16 21 -18 10 -3 -18 5 -11 15 -16 21 -13 7 4 8 3 4 -4 -8
-14 70 -102 91 -102 8 0 11 -5 7 -12 -4 -7 -3 -8 4 -4 7 4 12 1 12 -8 0 -9 9
-16 20 -16 13 0 20 7 20 20 0 13 -7 20 -20 20 -17 0 -20 7 -20 40 0 33 -4 40
-19 40 -21 0 -35 36 -17 44 6 3 -1 3 -16 0 -21 -5 -28 -2 -28 9 0 9 5 19 12
23 6 4 8 3 5 -3 -4 -6 8 -10 32 -10 21 0 44 -4 52 -8 7 -5 37 -10 66 -12 l53
-4 0 38 c0 35 -4 41 -34 55 -41 20 -86 103 -86 160 0 39 34 88 60 88 45 0 100
-58 131 -138 l17 -47 16 36 c18 42 36 146 36 206 0 41 1 42 54 66 64 29 151
115 190 186 25 48 27 55 15 84 -19 45 -126 150 -180 175 -95 46 -216 59 -380
42z m-19 -1040 c0 -5 -2 -10 -4 -10 -3 0 -8 5 -11 10 -3 6 -1 10 4 10 6 0 11
-4 11 -10z"/>
<path d="M783 3373 c-34 -47 -55 -95 -46 -102 31 -27 183 -141 186 -141 7 0
-102 252 -112 263 -5 5 -17 -4 -28 -20z"/>
<path d="M696 3197 c-14 -34 -37 -75 -50 -92 -24 -30 -24 -30 -6 -65 28 -53
260 -579 260 -590 0 -23 23 -5 92 75 82 96 96 101 187 66 43 -16 51 -17 55 -4
8 19 7 89 0 200 l-7 91 -51 39 c-28 21 -136 103 -241 183 -104 80 -195 149
-201 153 -7 4 -21 -17 -38 -56z"/>
<path d="M2570 3075 c0 -8 9 -19 21 -25 20 -11 20 -11 4 14 -20 30 -25 32 -25
11z"/>
<path d="M587 3054 c-3 -4 -44 -8 -90 -10 -61 -2 -98 -9 -130 -24 -50 -24
-145 -117 -131 -129 20 -17 644 -430 644 -426 0 5 -66 153 -125 280 -66 143
-122 269 -129 293 -7 21 -26 29 -39 16z"/>
<path d="M2556 2978 c-2 -7 -21 -119 -41 -248 -20 -129 -39 -246 -41 -260 -8
-39 23 21 106 208 l72 164 -24 46 c-31 63 -67 107 -72 90z"/>
<path d="M211 2853 c-47 -104 -55 -353 -12 -396 7 -7 50 -4 143 11 73 12 189
29 258 38 69 9 128 19 132 23 6 5 -413 294 -497 343 -7 5 -17 -2 -24 -19z"/>
<path d="M1637 2566 c-4 -10 -1 -13 9 -9 15 6 19 23 5 23 -5 0 -11 -7 -14 -14z"/>
<path d="M1606 2553 c-3 -4 -6 -10 -6 -14 0 -10 28 -20 34 -11 5 9 -20 32 -28
25z"/>
<path d="M1655 2508 c11 -7 22 -13 25 -13 3 0 10 -4 17 -8 7 -5 10 -1 6 11 -3
12 -15 19 -36 20 -29 2 -30 1 -12 -10z"/>
<path d="M620 2494 c-168 -27 -216 -34 -300 -45 -115 -14 -113 -14 -99 -41 7
-13 40 -59 74 -103 34 -44 74 -99 89 -123 l26 -42 75 74 c143 143 275 216 364
201 61 -10 57 10 -8 54 -67 46 -81 48 -221 25z"/>
<path d="M2915 2405 c-160 -78 -160 -79 -164 -157 l-1 -28 108 0 108 0 56 130
c31 72 53 130 49 129 -3 0 -73 -34 -156 -74z"/>
<path d="M2011 2334 c14 -30 20 -61 17 -90 -4 -54 8 -58 18 -7 5 25 2 52 -8
80 -12 34 -13 43 -2 43 23 0 69 -21 91 -42 13 -12 26 -18 30 -14 19 19 -89 76
-145 76 l-21 0 20 -46z"/>
<path d="M3967 2269 c-9 -39 -15 -75 -11 -80 3 -5 70 -9 150 -9 133 0 144 1
144 18 0 14 -31 34 -122 77 -68 31 -128 59 -133 62 -6 2 -18 -28 -28 -68z"/>
<path d="M2189 2247 c-14 -12 -32 -34 -41 -48 -9 -14 -31 -33 -49 -42 -30 -14
-36 -24 -50 -82 l-17 -66 27 18 c118 77 191 130 195 143 2 8 8 34 11 58 7 41
6 42 -22 42 -15 -1 -39 -11 -54 -23z"/>
<path d="M4457 2213 c-3 -5 -8 -30 -12 -58 -8 -63 -200 -430 -239 -460 -26
-19 -31 -19 -686 9 -363 16 -663 26 -667 22 -4 -4 1 -20 10 -35 21 -35 22 -90
3 -117 -12 -15 -14 -44 -11 -129 3 -60 7 -230 10 -378 l5 -267 -46 0 c-110 0
-316 85 -389 159 l-39 41 31 98 c17 53 60 184 94 290 l62 194 60 -7 c59 -7 59
-7 47 15 -7 14 -10 38 -6 61 l6 39 -36 0 c-34 0 -36 2 -30 25 5 20 2 25 -16
29 -21 4 -545 27 -610 26 -21 0 -28 -6 -33 -30 -4 -16 -10 -30 -13 -30 -4 0
-26 30 -50 68 -49 78 -87 188 -97 286 l-8 68 -35 -35 -36 -36 36 -53 35 -53
-30 -70 -29 -70 82 -85 c45 -47 102 -112 128 -145 137 -178 215 -284 300 -413
l94 -143 -130 -264 -131 -265 88 0 c101 0 101 0 101 83 0 81 44 337 57 337 8
0 20 -16 165 -227 l132 -193 438 0 438 0 1 43 c3 91 19 157 56 230 29 57 110
140 129 133 8 -3 14 -1 14 4 0 13 33 21 128 30 79 7 88 10 113 38 16 17 37 60
48 96 40 128 95 202 181 243 56 25 136 38 145 23 5 -8 11 -8 21 1 10 8 17 8
28 -3 8 -7 32 -23 53 -36 79 -48 123 -145 104 -233 -6 -28 -11 -72 -11 -99 0
-41 4 -52 26 -69 46 -36 61 -28 86 47 22 66 23 73 26 663 l3 596 -38 7 c-53 8
-151 8 -156 -1z"/>
</g>
</svg>
